<svg width="520" height="150" viewBox="0 0 520 150" fill="none" xmlns="http://www.w3.org/2000/svg">
<mask id="path-1-inside-1_294_343" fill="white">
<path d="M121.803 96.506H82.7672V81.3253H92.5262V16.2651H82.7672V1.08434H121.803V16.2651H112.044V81.3253H121.803V96.506Z"/>
<path d="M171.132 76.988L170.048 71.5663C166.65 73.8072 163.144 75.4699 159.53 76.5542C155.988 77.5663 152.988 78.0723 150.53 78.0723H145.65C140.735 78.0723 136.795 76.5904 133.831 73.6265C130.867 70.6627 129.385 66.7229 129.385 61.8072V36.8675C129.385 31.4458 130.903 27.2169 133.939 24.1807C137.048 21.0723 141.313 19.5181 146.735 19.5181H168.964V1.08434H187.939V76.988H171.132ZM155.952 62.3494C159.783 62.3494 164.12 61.6265 168.964 60.1807V34.1566H152.698C149.807 34.1566 148.361 35.6024 148.361 38.494V58.5542C148.361 59.6386 148.723 60.5422 149.445 61.2651C150.168 61.988 151.072 62.3494 152.156 62.3494H155.952Z"/>
<path d="M220.999 31.988C218.107 31.988 216.662 33.4337 216.662 36.3253V42.2892H235.095V36.3253C235.095 33.4337 233.65 31.988 230.758 31.988H220.999ZM251.903 75.9036C237.951 77.3494 225.3 78.0723 213.951 78.0723C209.035 78.0723 205.095 76.5904 202.132 73.6265C199.168 70.6627 197.686 66.7229 197.686 61.8072V35.7831C197.686 30.3614 199.204 26.1325 202.24 23.0964C205.348 19.988 209.613 18.4337 215.035 18.4337H236.722C242.144 18.4337 246.373 19.988 249.409 23.0964C252.517 26.1325 254.071 30.3614 254.071 35.7831V55.8434H216.662V60.1807C216.662 61.2651 217.023 62.1687 217.746 62.8916C218.469 63.6145 219.373 63.9759 220.457 63.9759C227.613 63.9759 238.095 63.4337 251.903 62.3494V75.9036Z"/>
<path d="M295.776 34.1566C291.945 34.1566 287.607 34.8795 282.764 36.3253V76.988H263.788V19.5181H280.595L281.68 24.9398C285.077 22.6988 288.547 21.0723 292.089 20.0602C295.704 18.9759 298.74 18.4337 301.198 18.4337H306.077C310.993 18.4337 314.933 19.9157 317.896 22.8795C320.86 25.8434 322.342 29.7831 322.342 34.6988V76.988H303.366V37.9518C303.366 36.8675 303.005 35.9639 302.282 35.241C301.559 34.5181 300.655 34.1566 299.571 34.1566H295.776Z"/>
<path d="M372.209 76.988C365.197 77.7108 358.329 78.0723 351.607 78.0723C346.691 78.0723 342.751 76.5904 339.787 73.6265C336.823 70.6627 335.342 66.7229 335.342 61.8072V34.1566H328.836V19.5181H335.342L337.51 6.50602H354.317V19.5181H367.872V34.1566H354.317V59.0964C354.317 60.1807 354.679 61.0843 355.402 61.8072C356.125 62.5301 357.028 62.8916 358.113 62.8916H372.209V76.988Z"/>
<path d="M401.584 21.6867V76.988H382.608V36.3253H374.475V21.6867H401.584ZM382.608 0H401.584V15.1807H382.608V0Z"/>
<path d="M459.087 15.7229C456.991 15.5783 454.208 15.3614 450.738 15.0723C447.268 14.7831 444.268 14.6386 441.738 14.6386C439.208 14.6386 437.581 15 436.858 15.7229C436.136 16.4458 435.774 17.3494 435.774 18.4337V23.8554H453.666V38.494H435.774V76.988H416.798V38.494H409.208V23.8554H416.798V16.2651C416.798 11.3494 418.28 7.40964 421.244 4.44578C424.208 1.48193 428.148 0 433.063 0C437.473 0 442.136 0.144579 447.051 0.433736C451.967 0.722893 455.979 0.93976 459.087 1.08434V15.7229Z"/>
<path d="M476.458 96.506C472.627 96.506 134.91 96.506 129.38 96.506V81.3253H472.121C474.868 81.3253 476.639 80.5663 477.434 79.0482C478.301 77.5301 478.157 75.3976 477 72.6506L454.771 19.5181H474.831L488.386 56.3855L499.771 19.5181H519.831L498.145 79.1566C496.048 84.8675 493.337 89.1687 490.012 92.0602C486.687 95.0241 482.169 96.506 476.458 96.506Z"/>
<path d="M61.0716 96.5032L55.2829 76.9908L23.614 76.9837L17.7123 96.5032H0L28.7321 1.08716L50.4259 1.0801L79.151 96.5032H61.0716ZM39.5755 24.214L27.8779 62.893H51.0895L39.5755 24.214Z"/>
<path d="M294.036 134.232C294.789 134.232 295.512 134.157 296.205 134.006C296.898 133.855 297.59 133.675 298.283 133.464V138.479C297.56 138.78 296.657 139.036 295.572 139.247C294.518 139.488 293.358 139.608 292.093 139.608C290.617 139.608 289.292 139.367 288.117 138.886C286.973 138.404 286.054 137.575 285.361 136.401C284.699 135.196 284.367 133.539 284.367 131.431V119.548H281.16V116.702L284.864 114.443L286.807 109.247H291.099V114.488H298.012V119.548H291.099V131.431C291.099 132.364 291.37 133.072 291.913 133.554C292.455 134.006 293.163 134.232 294.036 134.232ZM309.967 111.822C309.967 113.027 309.921 114.187 309.831 115.301C309.771 116.416 309.711 117.199 309.65 117.651H310.012C310.554 116.807 311.186 116.13 311.909 115.617C312.632 115.075 313.43 114.684 314.304 114.443C315.208 114.172 316.156 114.036 317.15 114.036C318.927 114.036 320.479 114.352 321.804 114.985C323.129 115.617 324.153 116.596 324.876 117.922C325.629 119.247 326.006 120.964 326.006 123.072V139.157H319.274V124.744C319.274 122.967 318.942 121.642 318.28 120.768C317.647 119.864 316.653 119.413 315.298 119.413C313.942 119.413 312.873 119.729 312.09 120.361C311.337 120.994 310.795 121.913 310.464 123.117C310.132 124.322 309.967 125.798 309.967 127.545V139.157H303.235V104.819H309.967V111.822ZM343.094 114.036C345.383 114.036 347.341 114.473 348.968 115.346C350.624 116.22 351.905 117.485 352.808 119.142C353.712 120.798 354.164 122.831 354.164 125.241V128.494H338.26C338.32 130.392 338.877 131.883 339.932 132.967C341.016 134.051 342.507 134.593 344.405 134.593C346.001 134.593 347.447 134.443 348.742 134.142C350.037 133.81 351.377 133.313 352.763 132.651V137.846C351.558 138.449 350.278 138.886 348.923 139.157C347.597 139.458 345.986 139.608 344.088 139.608C341.618 139.608 339.435 139.157 337.537 138.253C335.639 137.319 334.148 135.919 333.064 134.051C331.98 132.184 331.438 129.834 331.438 127.003C331.438 124.111 331.92 121.717 332.883 119.819C333.877 117.892 335.248 116.446 336.995 115.482C338.742 114.518 340.775 114.036 343.094 114.036ZM343.139 118.825C341.844 118.825 340.76 119.247 339.886 120.09C339.043 120.934 338.546 122.244 338.396 124.021H347.838C347.838 123.027 347.658 122.139 347.296 121.355C346.965 120.572 346.453 119.955 345.76 119.503C345.067 119.051 344.194 118.825 343.139 118.825ZM389.411 131.837C389.411 133.494 389.019 134.91 388.236 136.084C387.453 137.229 386.278 138.102 384.712 138.705C383.146 139.307 381.203 139.608 378.884 139.608C377.167 139.608 375.691 139.488 374.456 139.247C373.221 139.036 371.986 138.675 370.751 138.163V132.605C372.077 133.208 373.507 133.705 375.043 134.096C376.58 134.488 377.935 134.684 379.11 134.684C380.435 134.684 381.369 134.488 381.911 134.096C382.483 133.705 382.769 133.193 382.769 132.56C382.769 132.139 382.649 131.762 382.408 131.431C382.197 131.099 381.715 130.723 380.962 130.301C380.209 129.88 379.034 129.337 377.438 128.675C375.902 128.012 374.637 127.364 373.643 126.732C372.649 126.069 371.911 125.286 371.429 124.383C370.947 123.449 370.706 122.289 370.706 120.904C370.706 118.614 371.595 116.898 373.372 115.753C375.149 114.608 377.513 114.036 380.465 114.036C382.001 114.036 383.462 114.187 384.848 114.488C386.233 114.789 387.664 115.286 389.14 115.979L387.107 120.813C386.293 120.452 385.51 120.136 384.757 119.864C384.004 119.593 383.266 119.383 382.543 119.232C381.851 119.081 381.128 119.006 380.375 119.006C379.381 119.006 378.628 119.142 378.116 119.413C377.634 119.684 377.393 120.09 377.393 120.633C377.393 121.024 377.513 121.386 377.754 121.717C378.025 122.018 378.522 122.349 379.245 122.711C379.998 123.072 381.098 123.554 382.543 124.157C383.959 124.729 385.179 125.331 386.203 125.964C387.227 126.566 388.01 127.334 388.552 128.268C389.125 129.172 389.411 130.361 389.411 131.837ZM405.047 134.232C405.8 134.232 406.522 134.157 407.215 134.006C407.908 133.855 408.601 133.675 409.294 133.464V138.479C408.571 138.78 407.667 139.036 406.583 139.247C405.529 139.488 404.369 139.608 403.104 139.608C401.628 139.608 400.303 139.367 399.128 138.886C397.983 138.404 397.065 137.575 396.372 136.401C395.709 135.196 395.378 133.539 395.378 131.431V119.548H392.17V116.702L395.875 114.443L397.818 109.247H402.11V114.488H409.022V119.548H402.11V131.431C402.11 132.364 402.381 133.072 402.923 133.554C403.465 134.006 404.173 134.232 405.047 134.232ZM436.655 126.777C436.655 128.825 436.369 130.648 435.796 132.244C435.254 133.84 434.456 135.196 433.402 136.31C432.378 137.395 431.128 138.223 429.652 138.795C428.176 139.337 426.504 139.608 424.637 139.608C422.92 139.608 421.323 139.337 419.848 138.795C418.402 138.223 417.152 137.395 416.098 136.31C415.043 135.196 414.215 133.84 413.613 132.244C413.04 130.648 412.754 128.825 412.754 126.777C412.754 124.036 413.236 121.732 414.2 119.864C415.164 117.967 416.549 116.521 418.357 115.527C420.164 114.533 422.302 114.036 424.772 114.036C427.091 114.036 429.14 114.533 430.917 115.527C432.694 116.521 434.095 117.967 435.119 119.864C436.143 121.732 436.655 124.036 436.655 126.777ZM419.622 126.777C419.622 128.404 419.787 129.774 420.119 130.889C420.48 131.973 421.037 132.801 421.79 133.374C422.543 133.916 423.522 134.187 424.727 134.187C425.932 134.187 426.896 133.916 427.619 133.374C428.372 132.801 428.914 131.973 429.245 130.889C429.607 129.774 429.787 128.404 429.787 126.777C429.787 125.151 429.607 123.795 429.245 122.711C428.914 121.627 428.372 120.813 427.619 120.271C426.866 119.729 425.887 119.458 424.682 119.458C422.905 119.458 421.61 120.075 420.796 121.31C420.013 122.515 419.622 124.337 419.622 126.777ZM455.998 114.036C456.33 114.036 456.721 114.051 457.173 114.081C457.625 114.111 457.986 114.157 458.257 114.217L457.76 120.542C457.55 120.482 457.233 120.437 456.812 120.407C456.42 120.346 456.074 120.316 455.773 120.316C454.899 120.316 454.056 120.437 453.242 120.678C452.429 120.889 451.691 121.235 451.029 121.717C450.396 122.199 449.884 122.846 449.492 123.66C449.131 124.443 448.95 125.422 448.95 126.596V139.157H442.218V114.488H447.324L448.318 118.645H448.634C449.116 117.801 449.718 117.033 450.441 116.34C451.164 115.648 451.992 115.09 452.926 114.669C453.89 114.247 454.914 114.036 455.998 114.036ZM459.211 114.488H466.575L471.229 128.358C471.38 128.81 471.5 129.262 471.59 129.714C471.711 130.166 471.801 130.633 471.861 131.114C471.952 131.596 472.012 132.108 472.042 132.651H472.178C472.268 131.867 472.389 131.13 472.539 130.437C472.72 129.714 472.916 129.021 473.127 128.358L477.69 114.488H484.919L474.482 142.319C473.849 144.006 473.021 145.422 471.997 146.566C471.003 147.711 469.843 148.569 468.518 149.142C467.193 149.714 465.747 150 464.181 150C463.428 150 462.765 149.955 462.193 149.864C461.651 149.804 461.169 149.729 460.747 149.639V144.307C461.078 144.367 461.47 144.428 461.922 144.488C462.404 144.548 462.901 144.578 463.413 144.578C464.346 144.578 465.145 144.383 465.807 143.991C466.5 143.599 467.072 143.057 467.524 142.364C467.976 141.702 468.337 140.979 468.608 140.196L469.015 138.976L459.211 114.488Z"/>
</mask>
<path d="M121.803 96.506H82.7672V81.3253H92.5262V16.2651H82.7672V1.08434H121.803V16.2651H112.044V81.3253H121.803V96.506Z" stroke="url(#paint0_linear_294_343)" stroke-width="8" mask="url(#path-1-inside-1_294_343)"/>
<path d="M171.132 76.988L170.048 71.5663C166.65 73.8072 163.144 75.4699 159.53 76.5542C155.988 77.5663 152.988 78.0723 150.53 78.0723H145.65C140.735 78.0723 136.795 76.5904 133.831 73.6265C130.867 70.6627 129.385 66.7229 129.385 61.8072V36.8675C129.385 31.4458 130.903 27.2169 133.939 24.1807C137.048 21.0723 141.313 19.5181 146.735 19.5181H168.964V1.08434H187.939V76.988H171.132ZM155.952 62.3494C159.783 62.3494 164.12 61.6265 168.964 60.1807V34.1566H152.698C149.807 34.1566 148.361 35.6024 148.361 38.494V58.5542C148.361 59.6386 148.723 60.5422 149.445 61.2651C150.168 61.988 151.072 62.3494 152.156 62.3494H155.952Z" stroke="url(#paint1_linear_294_343)" stroke-width="8" mask="url(#path-1-inside-1_294_343)"/>
<path d="M220.999 31.988C218.107 31.988 216.662 33.4337 216.662 36.3253V42.2892H235.095V36.3253C235.095 33.4337 233.65 31.988 230.758 31.988H220.999ZM251.903 75.9036C237.951 77.3494 225.3 78.0723 213.951 78.0723C209.035 78.0723 205.095 76.5904 202.132 73.6265C199.168 70.6627 197.686 66.7229 197.686 61.8072V35.7831C197.686 30.3614 199.204 26.1325 202.24 23.0964C205.348 19.988 209.613 18.4337 215.035 18.4337H236.722C242.144 18.4337 246.373 19.988 249.409 23.0964C252.517 26.1325 254.071 30.3614 254.071 35.7831V55.8434H216.662V60.1807C216.662 61.2651 217.023 62.1687 217.746 62.8916C218.469 63.6145 219.373 63.9759 220.457 63.9759C227.613 63.9759 238.095 63.4337 251.903 62.3494V75.9036Z" stroke="url(#paint2_linear_294_343)" stroke-width="8" mask="url(#path-1-inside-1_294_343)"/>
<path d="M295.776 34.1566C291.945 34.1566 287.607 34.8795 282.764 36.3253V76.988H263.788V19.5181H280.595L281.68 24.9398C285.077 22.6988 288.547 21.0723 292.089 20.0602C295.704 18.9759 298.74 18.4337 301.198 18.4337H306.077C310.993 18.4337 314.933 19.9157 317.896 22.8795C320.86 25.8434 322.342 29.7831 322.342 34.6988V76.988H303.366V37.9518C303.366 36.8675 303.005 35.9639 302.282 35.241C301.559 34.5181 300.655 34.1566 299.571 34.1566H295.776Z" stroke="url(#paint3_linear_294_343)" stroke-width="8" mask="url(#path-1-inside-1_294_343)"/>
<path d="M372.209 76.988C365.197 77.7108 358.329 78.0723 351.607 78.0723C346.691 78.0723 342.751 76.5904 339.787 73.6265C336.823 70.6627 335.342 66.7229 335.342 61.8072V34.1566H328.836V19.5181H335.342L337.51 6.50602H354.317V19.5181H367.872V34.1566H354.317V59.0964C354.317 60.1807 354.679 61.0843 355.402 61.8072C356.125 62.5301 357.028 62.8916 358.113 62.8916H372.209V76.988Z" stroke="url(#paint4_linear_294_343)" stroke-width="8" mask="url(#path-1-inside-1_294_343)"/>
<path d="M401.584 21.6867V76.988H382.608V36.3253H374.475V21.6867H401.584ZM382.608 0H401.584V15.1807H382.608V0Z" stroke="url(#paint5_linear_294_343)" stroke-width="8" mask="url(#path-1-inside-1_294_343)"/>
<path d="M459.087 15.7229C456.991 15.5783 454.208 15.3614 450.738 15.0723C447.268 14.7831 444.268 14.6386 441.738 14.6386C439.208 14.6386 437.581 15 436.858 15.7229C436.136 16.4458 435.774 17.3494 435.774 18.4337V23.8554H453.666V38.494H435.774V76.988H416.798V38.494H409.208V23.8554H416.798V16.2651C416.798 11.3494 418.28 7.40964 421.244 4.44578C424.208 1.48193 428.148 0 433.063 0C437.473 0 442.136 0.144579 447.051 0.433736C451.967 0.722893 455.979 0.93976 459.087 1.08434V15.7229Z" stroke="url(#paint6_linear_294_343)" stroke-width="8" mask="url(#path-1-inside-1_294_343)"/>
<path d="M476.458 96.506C472.627 96.506 134.91 96.506 129.38 96.506V81.3253H472.121C474.868 81.3253 476.639 80.5663 477.434 79.0482C478.301 77.5301 478.157 75.3976 477 72.6506L454.771 19.5181H474.831L488.386 56.3855L499.771 19.5181H519.831L498.145 79.1566C496.048 84.8675 493.337 89.1687 490.012 92.0602C486.687 95.0241 482.169 96.506 476.458 96.506Z" stroke="url(#paint7_linear_294_343)" stroke-width="8" mask="url(#path-1-inside-1_294_343)"/>
<path d="M61.0716 96.5032L55.2829 76.9908L23.614 76.9837L17.7123 96.5032H0L28.7321 1.08716L50.4259 1.0801L79.151 96.5032H61.0716ZM39.5755 24.214L27.8779 62.893H51.0895L39.5755 24.214Z" stroke="url(#paint8_linear_294_343)" stroke-width="8" mask="url(#path-1-inside-1_294_343)"/>
<path d="M294.036 134.232C294.789 134.232 295.512 134.157 296.205 134.006C296.898 133.855 297.59 133.675 298.283 133.464V138.479C297.56 138.78 296.657 139.036 295.572 139.247C294.518 139.488 293.358 139.608 292.093 139.608C290.617 139.608 289.292 139.367 288.117 138.886C286.973 138.404 286.054 137.575 285.361 136.401C284.699 135.196 284.367 133.539 284.367 131.431V119.548H281.16V116.702L284.864 114.443L286.807 109.247H291.099V114.488H298.012V119.548H291.099V131.431C291.099 132.364 291.37 133.072 291.913 133.554C292.455 134.006 293.163 134.232 294.036 134.232ZM309.967 111.822C309.967 113.027 309.921 114.187 309.831 115.301C309.771 116.416 309.711 117.199 309.65 117.651H310.012C310.554 116.807 311.186 116.13 311.909 115.617C312.632 115.075 313.43 114.684 314.304 114.443C315.208 114.172 316.156 114.036 317.15 114.036C318.927 114.036 320.479 114.352 321.804 114.985C323.129 115.617 324.153 116.596 324.876 117.922C325.629 119.247 326.006 120.964 326.006 123.072V139.157H319.274V124.744C319.274 122.967 318.942 121.642 318.28 120.768C317.647 119.864 316.653 119.413 315.298 119.413C313.942 119.413 312.873 119.729 312.09 120.361C311.337 120.994 310.795 121.913 310.464 123.117C310.132 124.322 309.967 125.798 309.967 127.545V139.157H303.235V104.819H309.967V111.822ZM343.094 114.036C345.383 114.036 347.341 114.473 348.968 115.346C350.624 116.22 351.905 117.485 352.808 119.142C353.712 120.798 354.164 122.831 354.164 125.241V128.494H338.26C338.32 130.392 338.877 131.883 339.932 132.967C341.016 134.051 342.507 134.593 344.405 134.593C346.001 134.593 347.447 134.443 348.742 134.142C350.037 133.81 351.377 133.313 352.763 132.651V137.846C351.558 138.449 350.278 138.886 348.923 139.157C347.597 139.458 345.986 139.608 344.088 139.608C341.618 139.608 339.435 139.157 337.537 138.253C335.639 137.319 334.148 135.919 333.064 134.051C331.98 132.184 331.438 129.834 331.438 127.003C331.438 124.111 331.92 121.717 332.883 119.819C333.877 117.892 335.248 116.446 336.995 115.482C338.742 114.518 340.775 114.036 343.094 114.036ZM343.139 118.825C341.844 118.825 340.76 119.247 339.886 120.09C339.043 120.934 338.546 122.244 338.396 124.021H347.838C347.838 123.027 347.658 122.139 347.296 121.355C346.965 120.572 346.453 119.955 345.76 119.503C345.067 119.051 344.194 118.825 343.139 118.825ZM389.411 131.837C389.411 133.494 389.019 134.91 388.236 136.084C387.453 137.229 386.278 138.102 384.712 138.705C383.146 139.307 381.203 139.608 378.884 139.608C377.167 139.608 375.691 139.488 374.456 139.247C373.221 139.036 371.986 138.675 370.751 138.163V132.605C372.077 133.208 373.507 133.705 375.043 134.096C376.58 134.488 377.935 134.684 379.11 134.684C380.435 134.684 381.369 134.488 381.911 134.096C382.483 133.705 382.769 133.193 382.769 132.56C382.769 132.139 382.649 131.762 382.408 131.431C382.197 131.099 381.715 130.723 380.962 130.301C380.209 129.88 379.034 129.337 377.438 128.675C375.902 128.012 374.637 127.364 373.643 126.732C372.649 126.069 371.911 125.286 371.429 124.383C370.947 123.449 370.706 122.289 370.706 120.904C370.706 118.614 371.595 116.898 373.372 115.753C375.149 114.608 377.513 114.036 380.465 114.036C382.001 114.036 383.462 114.187 384.848 114.488C386.233 114.789 387.664 115.286 389.14 115.979L387.107 120.813C386.293 120.452 385.51 120.136 384.757 119.864C384.004 119.593 383.266 119.383 382.543 119.232C381.851 119.081 381.128 119.006 380.375 119.006C379.381 119.006 378.628 119.142 378.116 119.413C377.634 119.684 377.393 120.09 377.393 120.633C377.393 121.024 377.513 121.386 377.754 121.717C378.025 122.018 378.522 122.349 379.245 122.711C379.998 123.072 381.098 123.554 382.543 124.157C383.959 124.729 385.179 125.331 386.203 125.964C387.227 126.566 388.01 127.334 388.552 128.268C389.125 129.172 389.411 130.361 389.411 131.837ZM405.047 134.232C405.8 134.232 406.522 134.157 407.215 134.006C407.908 133.855 408.601 133.675 409.294 133.464V138.479C408.571 138.78 407.667 139.036 406.583 139.247C405.529 139.488 404.369 139.608 403.104 139.608C401.628 139.608 400.303 139.367 399.128 138.886C397.983 138.404 397.065 137.575 396.372 136.401C395.709 135.196 395.378 133.539 395.378 131.431V119.548H392.17V116.702L395.875 114.443L397.818 109.247H402.11V114.488H409.022V119.548H402.11V131.431C402.11 132.364 402.381 133.072 402.923 133.554C403.465 134.006 404.173 134.232 405.047 134.232ZM436.655 126.777C436.655 128.825 436.369 130.648 435.796 132.244C435.254 133.84 434.456 135.196 433.402 136.31C432.378 137.395 431.128 138.223 429.652 138.795C428.176 139.337 426.504 139.608 424.637 139.608C422.92 139.608 421.323 139.337 419.848 138.795C418.402 138.223 417.152 137.395 416.098 136.31C415.043 135.196 414.215 133.84 413.613 132.244C413.04 130.648 412.754 128.825 412.754 126.777C412.754 124.036 413.236 121.732 414.2 119.864C415.164 117.967 416.549 116.521 418.357 115.527C420.164 114.533 422.302 114.036 424.772 114.036C427.091 114.036 429.14 114.533 430.917 115.527C432.694 116.521 434.095 117.967 435.119 119.864C436.143 121.732 436.655 124.036 436.655 126.777ZM419.622 126.777C419.622 128.404 419.787 129.774 420.119 130.889C420.48 131.973 421.037 132.801 421.79 133.374C422.543 133.916 423.522 134.187 424.727 134.187C425.932 134.187 426.896 133.916 427.619 133.374C428.372 132.801 428.914 131.973 429.245 130.889C429.607 129.774 429.787 128.404 429.787 126.777C429.787 125.151 429.607 123.795 429.245 122.711C428.914 121.627 428.372 120.813 427.619 120.271C426.866 119.729 425.887 119.458 424.682 119.458C422.905 119.458 421.61 120.075 420.796 121.31C420.013 122.515 419.622 124.337 419.622 126.777ZM455.998 114.036C456.33 114.036 456.721 114.051 457.173 114.081C457.625 114.111 457.986 114.157 458.257 114.217L457.76 120.542C457.55 120.482 457.233 120.437 456.812 120.407C456.42 120.346 456.074 120.316 455.773 120.316C454.899 120.316 454.056 120.437 453.242 120.678C452.429 120.889 451.691 121.235 451.029 121.717C450.396 122.199 449.884 122.846 449.492 123.66C449.131 124.443 448.95 125.422 448.95 126.596V139.157H442.218V114.488H447.324L448.318 118.645H448.634C449.116 117.801 449.718 117.033 450.441 116.34C451.164 115.648 451.992 115.09 452.926 114.669C453.89 114.247 454.914 114.036 455.998 114.036ZM459.211 114.488H466.575L471.229 128.358C471.38 128.81 471.5 129.262 471.59 129.714C471.711 130.166 471.801 130.633 471.861 131.114C471.952 131.596 472.012 132.108 472.042 132.651H472.178C472.268 131.867 472.389 131.13 472.539 130.437C472.72 129.714 472.916 129.021 473.127 128.358L477.69 114.488H484.919L474.482 142.319C473.849 144.006 473.021 145.422 471.997 146.566C471.003 147.711 469.843 148.569 468.518 149.142C467.193 149.714 465.747 150 464.181 150C463.428 150 462.765 149.955 462.193 149.864C461.651 149.804 461.169 149.729 460.747 149.639V144.307C461.078 144.367 461.47 144.428 461.922 144.488C462.404 144.548 462.901 144.578 463.413 144.578C464.346 144.578 465.145 144.383 465.807 143.991C466.5 143.599 467.072 143.057 467.524 142.364C467.976 141.702 468.337 140.979 468.608 140.196L469.015 138.976L459.211 114.488Z" stroke="url(#paint9_linear_294_343)" stroke-width="8" mask="url(#path-1-inside-1_294_343)"/>
<defs>
<linearGradient id="paint0_linear_294_343" x1="-295.482" y1="-196.084" x2="545.834" y2="9.3686" gradientUnits="userSpaceOnUse">
<stop stop-color="#BBBAC6"/>
<stop offset="1" stop-color="#565373"/>
</linearGradient>
<linearGradient id="paint1_linear_294_343" x1="-295.482" y1="-196.084" x2="545.834" y2="9.3686" gradientUnits="userSpaceOnUse">
<stop stop-color="#BBBAC6"/>
<stop offset="1" stop-color="#565373"/>
</linearGradient>
<linearGradient id="paint2_linear_294_343" x1="-295.482" y1="-196.084" x2="545.834" y2="9.3686" gradientUnits="userSpaceOnUse">
<stop stop-color="#BBBAC6"/>
<stop offset="1" stop-color="#565373"/>
</linearGradient>
<linearGradient id="paint3_linear_294_343" x1="-295.482" y1="-196.084" x2="545.834" y2="9.3686" gradientUnits="userSpaceOnUse">
<stop stop-color="#BBBAC6"/>
<stop offset="1" stop-color="#565373"/>
</linearGradient>
<linearGradient id="paint4_linear_294_343" x1="-295.482" y1="-196.084" x2="545.834" y2="9.3686" gradientUnits="userSpaceOnUse">
<stop stop-color="#BBBAC6"/>
<stop offset="1" stop-color="#565373"/>
</linearGradient>
<linearGradient id="paint5_linear_294_343" x1="-295.482" y1="-196.084" x2="545.834" y2="9.3686" gradientUnits="userSpaceOnUse">
<stop stop-color="#BBBAC6"/>
<stop offset="1" stop-color="#565373"/>
</linearGradient>
<linearGradient id="paint6_linear_294_343" x1="-295.482" y1="-196.084" x2="545.834" y2="9.3686" gradientUnits="userSpaceOnUse">
<stop stop-color="#BBBAC6"/>
<stop offset="1" stop-color="#565373"/>
</linearGradient>
<linearGradient id="paint7_linear_294_343" x1="-295.482" y1="-196.084" x2="545.834" y2="9.3686" gradientUnits="userSpaceOnUse">
<stop stop-color="#BBBAC6"/>
<stop offset="1" stop-color="#565373"/>
</linearGradient>
<linearGradient id="paint8_linear_294_343" x1="-295.482" y1="-196.084" x2="545.834" y2="9.3686" gradientUnits="userSpaceOnUse">
<stop stop-color="#BBBAC6"/>
<stop offset="1" stop-color="#565373"/>
</linearGradient>
<linearGradient id="paint9_linear_294_343" x1="-295.482" y1="-196.084" x2="545.834" y2="9.3686" gradientUnits="userSpaceOnUse">
<stop stop-color="#BBBAC6"/>
<stop offset="1" stop-color="#565373"/>
</linearGradient>
</defs>
</svg>
