<svg width="77" height="77" viewBox="0 0 77 77" fill="none" xmlns="http://www.w3.org/2000/svg">
<path d="M0 12.8C0 8.31958 0 6.07937 0.871948 4.36808C1.63894 2.86278 2.86278 1.63894 4.36808 0.871948C6.07937 0 8.31958 0 12.8 0L27.2 0C31.6804 0 33.9206 0 35.6319 0.871948C37.1372 1.63894 38.3611 2.86278 39.1281 4.36808C40 6.07937 40 8.31958 40 12.8V27.2C40 31.6804 40 33.9206 39.1281 35.6319C38.3611 37.1372 37.1372 38.3611 35.6319 39.1281C33.9206 40 31.6804 40 27.2 40H12.8C8.31958 40 6.07937 40 4.36808 39.1281C2.86278 38.3611 1.63894 37.1372 0.871948 35.6319C0 33.9206 0 31.6804 0 27.2L0 12.8Z" fill="url(#paint0_linear_55_127)"/>
<path d="M20 47.6C20 45.6398 20 44.6597 20.3815 43.911C20.717 43.2525 21.2525 42.717 21.911 42.3815C22.6597 42 23.6398 42 25.6 42H34.4C36.3602 42 37.3403 42 38.089 42.3815C38.7475 42.717 39.283 43.2525 39.6185 43.911C40 44.6597 40 45.6398 40 47.6V56.4C40 58.3602 40 59.3403 39.6185 60.089C39.283 60.7475 38.7475 61.283 38.089 61.6185C37.3403 62 36.3602 62 34.4 62H25.6C23.6398 62 22.6597 62 21.911 61.6185C21.2525 61.283 20.717 60.7475 20.3815 60.089C20 59.3403 20 58.3602 20 56.4V47.6Z" fill="url(#paint1_linear_55_127)"/>
<path d="M42 23C42 20.1997 42 18.7996 42.545 17.73C43.0243 16.7892 43.7892 16.0243 44.7301 15.545C45.7996 15 47.1997 15 50 15H59C61.8003 15 63.2004 15 64.27 15.545C65.2108 16.0243 65.9757 16.7892 66.455 17.73C67 18.7996 67 20.1997 67 23V32C67 34.8003 67 36.2004 66.455 37.27C65.9757 38.2108 65.2108 38.9757 64.27 39.455C63.2004 40 61.8003 40 59 40H50C47.1997 40 45.7996 40 44.7301 39.455C43.7892 38.9757 43.0243 38.2108 42.545 37.27C42 36.2004 42 34.8003 42 32V23Z" fill="url(#paint2_linear_55_127)"/>
<path d="M42 53.2C42 49.2796 42 47.3195 42.763 45.8221C43.4341 44.5049 44.5049 43.4341 45.8221 42.763C47.3195 42 49.2796 42 53.2 42L65.8 42C69.7204 42 71.6806 42 73.1779 42.763C74.4951 43.4341 75.5659 44.5049 76.2371 45.8221C77 47.3195 77 49.2796 77 53.2V65.8C77 69.7204 77 71.6806 76.2371 73.1779C75.5659 74.4951 74.4951 75.5659 73.1779 76.2371C71.6806 77 69.7204 77 65.8 77H53.2C49.2796 77 47.3195 77 45.8221 76.2371C44.5049 75.5659 43.4341 74.4951 42.763 73.1779C42 71.6806 42 69.7204 42 65.8L42 53.2Z" fill="url(#paint3_linear_55_127)"/>
<defs>
<linearGradient id="paint0_linear_55_127" x1="55" y1="-1.09135e-06" x2="18" y2="67" gradientUnits="userSpaceOnUse">
<stop stop-color="#565373"/>
<stop offset="1" stop-color="#6E7E85"/>
</linearGradient>
<linearGradient id="paint1_linear_55_127" x1="55" y1="-1.09135e-06" x2="18" y2="67" gradientUnits="userSpaceOnUse">
<stop stop-color="#565373"/>
<stop offset="1" stop-color="#6E7E85"/>
</linearGradient>
<linearGradient id="paint2_linear_55_127" x1="55" y1="-1.09135e-06" x2="18" y2="67" gradientUnits="userSpaceOnUse">
<stop stop-color="#565373"/>
<stop offset="1" stop-color="#6E7E85"/>
</linearGradient>
<linearGradient id="paint3_linear_55_127" x1="55" y1="-1.09135e-06" x2="18" y2="67" gradientUnits="userSpaceOnUse">
<stop stop-color="#565373"/>
<stop offset="1" stop-color="#6E7E85"/>
</linearGradient>
</defs>
</svg>
