<svg width="491" height="77" viewBox="0 0 491 77" fill="none" xmlns="http://www.w3.org/2000/svg">
<path d="M108.8 65.4H99L114.9 12.6H126.9L142.8 65.4H132.8L129.587 54.5988H112.067L108.8 65.4ZM129.587 54.5988L132.8 65.4L120.9 25.4L114.472 46.65L114.425 46.8H127.267L129.587 54.5988Z" fill="url(#paint0_linear_213_195)"/>
<path d="M166.398 65.4H144.798V57H150.198V21H144.798V12.6H166.398V21H160.998V57H166.398V65.4Z" fill="url(#paint1_linear_213_195)"/>
<path d="M193.693 54.6L193.093 51.6C191.213 52.84 189.273 53.76 187.273 54.36C185.313 54.92 183.653 55.2 182.293 55.2H179.593C176.873 55.2 174.693 54.38 173.053 52.74C171.413 51.1 170.593 48.92 170.593 46.2V32.4C170.593 29.4 171.433 27.06 173.113 25.38C174.833 23.66 177.193 22.8 180.193 22.8H192.493V12.6H202.993V54.6H193.693ZM185.293 46.5C187.413 46.5 189.813 46.1 192.493 45.3V30.9H183.493C181.893 30.9 181.093 31.7 181.093 33.3V44.4C181.093 45 181.293 45.5 181.693 45.9C182.093 46.3 182.593 46.5 183.193 46.5H185.293Z" fill="url(#paint2_linear_213_195)"/>
<path d="M221.286 29.7C219.686 29.7 218.886 30.5 218.886 32.1V35.4H229.086V32.1C229.086 30.5 228.286 29.7 226.686 29.7H221.286ZM238.386 54C230.666 54.8 223.666 55.2 217.386 55.2C214.666 55.2 212.486 54.38 210.846 52.74C209.206 51.1 208.386 48.92 208.386 46.2V31.8C208.386 28.8 209.226 26.46 210.906 24.78C212.626 23.06 214.986 22.2 217.986 22.2H229.986C232.986 22.2 235.326 23.06 237.006 24.78C238.726 26.46 239.586 28.8 239.586 31.8V42.9H218.886V45.3C218.886 45.9 219.086 46.4 219.486 46.8C219.886 47.2 220.386 47.4 220.986 47.4C224.946 47.4 230.746 47.1 238.386 46.5V54Z" fill="url(#paint3_linear_213_195)"/>
<path d="M262.663 30.9C260.543 30.9 258.143 31.3 255.463 32.1V54.6H244.963V22.8H254.262L254.863 25.8C256.743 24.56 258.662 23.66 260.622 23.1C262.622 22.5 264.303 22.2 265.663 22.2H268.362C271.082 22.2 273.263 23.02 274.903 24.66C276.543 26.3 277.362 28.48 277.362 31.2V54.6H266.862V33C266.862 32.4 266.663 31.9 266.263 31.5C265.863 31.1 265.363 30.9 264.763 30.9H262.663Z" fill="url(#paint4_linear_213_195)"/>
<path d="M304.955 54.6C301.075 55 297.275 55.2 293.555 55.2C290.835 55.2 288.655 54.38 287.015 52.74C285.375 51.1 284.555 48.92 284.555 46.2V30.9H280.955V22.8H284.555L285.755 15.6H295.055V22.8H302.555V30.9H295.055V44.7C295.055 45.3 295.255 45.8 295.655 46.2C296.055 46.6 296.555 46.8 297.155 46.8H304.955V54.6Z" fill="url(#paint5_linear_213_195)"/>
<path d="M321.209 24V54.6H310.709V32.1H306.209V24H321.209ZM310.709 12H321.209V20.4H310.709V12Z" fill="url(#paint6_linear_213_195)"/>
<path d="M353.028 20.7C351.868 20.62 350.328 20.5 348.408 20.34C346.488 20.18 344.828 20.1 343.428 20.1C342.028 20.1 341.128 20.3 340.728 20.7C340.328 21.1 340.128 21.6 340.128 22.2V25.2H350.028V33.3H340.128V54.6H329.628V33.3H325.428V25.2H329.628V21C329.628 18.28 330.448 16.1 332.088 14.46C333.728 12.82 335.908 12 338.628 12C341.068 12 343.648 12.08 346.368 12.24C349.088 12.4 351.308 12.52 353.028 12.6V20.7Z" fill="url(#paint7_linear_213_195)"/>
<path d="M362.64 65.4C360.52 65.4 173.65 65.4 170.59 65.4V57H360.24C361.76 57 362.74 56.58 363.18 55.74C363.66 54.9 363.58 53.72 362.94 52.2L350.64 22.8H361.74L369.24 43.2L375.54 22.8H386.64L374.64 55.8C373.48 58.96 371.98 61.34 370.14 62.94C368.3 64.58 365.8 65.4 362.64 65.4Z" fill="url(#paint8_linear_213_195)"/>
<path d="M0 12.8C0 8.31958 0 6.07937 0.871948 4.36808C1.63894 2.86278 2.86278 1.63894 4.36808 0.871948C6.07937 0 8.31958 0 12.8 0H27.2C31.6804 0 33.9206 0 35.6319 0.871948C37.1372 1.63894 38.3611 2.86278 39.1281 4.36808C40 6.07937 40 8.31958 40 12.8V27.2C40 31.6804 40 33.9206 39.1281 35.6319C38.3611 37.1372 37.1372 38.3611 35.6319 39.1281C33.9206 40 31.6804 40 27.2 40H12.8C8.31958 40 6.07937 40 4.36808 39.1281C2.86278 38.3611 1.63894 37.1372 0.871948 35.6319C0 33.9206 0 31.6804 0 27.2V12.8Z" fill="url(#paint9_linear_213_195)"/>
<path d="M20 47.6C20 45.6398 20 44.6597 20.3815 43.911C20.717 43.2525 21.2525 42.717 21.911 42.3815C22.6597 42 23.6398 42 25.6 42H34.4C36.3602 42 37.3403 42 38.089 42.3815C38.7475 42.717 39.283 43.2525 39.6185 43.911C40 44.6597 40 45.6398 40 47.6V56.4C40 58.3602 40 59.3403 39.6185 60.089C39.283 60.7475 38.7475 61.283 38.089 61.6185C37.3403 62 36.3602 62 34.4 62H25.6C23.6398 62 22.6597 62 21.911 61.6185C21.2525 61.283 20.717 60.7475 20.3815 60.089C20 59.3403 20 58.3602 20 56.4V47.6Z" fill="url(#paint10_linear_213_195)"/>
<path d="M42 23C42 20.1997 42 18.7996 42.545 17.73C43.0243 16.7892 43.7892 16.0243 44.7301 15.545C45.7996 15 47.1997 15 50 15H59C61.8003 15 63.2004 15 64.27 15.545C65.2108 16.0243 65.9757 16.7892 66.455 17.73C67 18.7996 67 20.1997 67 23V32C67 34.8003 67 36.2004 66.455 37.27C65.9757 38.2108 65.2108 38.9757 64.27 39.455C63.2004 40 61.8003 40 59 40H50C47.1997 40 45.7996 40 44.7301 39.455C43.7892 38.9757 43.0243 38.2108 42.545 37.27C42 36.2004 42 34.8003 42 32V23Z" fill="url(#paint11_linear_213_195)"/>
<path d="M42 53.2C42 49.2796 42 47.3195 42.763 45.8221C43.4341 44.5049 44.5049 43.4341 45.8221 42.763C47.3195 42 49.2796 42 53.2 42H65.8C69.7204 42 71.6806 42 73.1779 42.763C74.4951 43.4341 75.5659 44.5049 76.2371 45.8221C77 47.3195 77 49.2796 77 53.2V65.8C77 69.7204 77 71.6806 76.2371 73.1779C75.5659 74.4951 74.4951 75.5659 73.1779 76.2371C71.6806 77 69.7204 77 65.8 77H53.2C49.2796 77 47.3195 77 45.8221 76.2371C44.5049 75.5659 43.4341 74.4951 42.763 73.1779C42 71.6806 42 69.7204 42 65.8V53.2Z" fill="url(#paint12_linear_213_195)"/>
<path d="M401 57C401 45.9543 409.954 37 421 37H471C482.046 37 491 45.9543 491 57C491 68.0457 482.046 77 471 77H421C409.954 77 401 68.0457 401 57Z" fill="#F5F5F5"/>
<path d="M401 57C401 45.9543 409.954 37 421 37H471C482.046 37 491 45.9543 491 57C491 68.0457 482.046 77 471 77H421C409.954 77 401 68.0457 401 57Z" fill="url(#paint13_linear_213_195)" fill-opacity="0.25"/>
<path d="M421.774 57.9V63.15C421.774 63.2833 421.849 63.3667 421.999 63.4C422.582 63.4833 423.132 63.525 423.649 63.525C425.032 63.525 426.04 63.275 426.674 62.775C427.324 62.2583 427.649 61.475 427.649 60.425C427.649 59.4917 427.274 58.8083 426.524 58.375C425.79 57.925 424.565 57.7 422.849 57.7H421.974C421.84 57.7 421.774 57.7667 421.774 57.9ZM421.774 50.6V54.875C421.774 55.025 421.84 55.1 421.974 55.1H422.699C424.249 55.1 425.365 54.8917 426.049 54.475C426.749 54.0417 427.099 53.4083 427.099 52.575C427.099 51.775 426.815 51.1833 426.249 50.8C425.682 50.4167 424.757 50.225 423.474 50.225C422.89 50.225 422.39 50.2583 421.974 50.325C421.84 50.3583 421.774 50.45 421.774 50.6ZM419.724 66.05C419.324 66.0167 418.99 65.85 418.724 65.55C418.457 65.2333 418.324 64.8667 418.324 64.45V49.3C418.324 48.8833 418.457 48.525 418.724 48.225C418.99 47.9083 419.332 47.7333 419.749 47.7C420.982 47.5667 422.174 47.5 423.324 47.5C427.99 47.5 430.324 49.025 430.324 52.075C430.324 53.0917 429.982 53.975 429.299 54.725C428.615 55.475 427.715 55.9583 426.599 56.175C426.582 56.175 426.574 56.1833 426.574 56.2C426.574 56.2333 426.582 56.25 426.599 56.25C427.965 56.45 429.032 56.9583 429.799 57.775C430.582 58.575 430.974 59.5667 430.974 60.75C430.974 62.5833 430.374 63.9583 429.174 64.875C427.974 65.7917 426.107 66.25 423.574 66.25C422.307 66.25 421.024 66.1833 419.724 66.05Z" fill="#1C0F13" fill-opacity="0.8"/>
<path d="M435.227 66C434.844 66 434.51 65.8583 434.227 65.575C433.944 65.2917 433.802 64.9583 433.802 64.575V49.175C433.802 48.7917 433.944 48.4583 434.227 48.175C434.51 47.8917 434.844 47.75 435.227 47.75H443.727C444.11 47.75 444.444 47.8917 444.727 48.175C445.01 48.4583 445.152 48.7917 445.152 49.175C445.152 49.5583 445.01 49.8917 444.727 50.175C444.444 50.4417 444.11 50.575 443.727 50.575H437.527C437.377 50.575 437.302 50.65 437.302 50.8V54.825C437.302 54.975 437.377 55.05 437.527 55.05H443.302C443.685 55.05 444.002 55.1833 444.252 55.45C444.519 55.7167 444.652 56.0333 444.652 56.4C444.652 56.7667 444.519 57.0833 444.252 57.35C444.002 57.6 443.685 57.725 443.302 57.725H437.527C437.377 57.725 437.302 57.8 437.302 57.95V62.95C437.302 63.1 437.377 63.175 437.527 63.175H443.727C444.11 63.175 444.444 63.3167 444.727 63.6C445.01 63.8667 445.152 64.1917 445.152 64.575C445.152 64.9583 445.01 65.2917 444.727 65.575C444.444 65.8583 444.11 66 443.727 66H435.227Z" fill="#1C0F13" fill-opacity="0.8"/>
<path d="M449.641 50.65C449.258 50.65 448.925 50.5167 448.641 50.25C448.358 49.9667 448.216 49.6333 448.216 49.25V49.175C448.216 48.7917 448.358 48.4583 448.641 48.175C448.925 47.8917 449.258 47.75 449.641 47.75H460.291C460.675 47.75 461.008 47.8917 461.291 48.175C461.575 48.4583 461.716 48.7917 461.716 49.175V49.25C461.716 49.6333 461.575 49.9667 461.291 50.25C461.008 50.5167 460.675 50.65 460.291 50.65H456.941C456.808 50.65 456.741 50.725 456.741 50.875V64.575C456.741 64.9583 456.6 65.2917 456.316 65.575C456.033 65.8583 455.7 66 455.316 66H454.616C454.233 66 453.9 65.8583 453.616 65.575C453.333 65.2917 453.191 64.9583 453.191 64.575V50.875C453.191 50.725 453.125 50.65 452.991 50.65H449.641Z" fill="#1C0F13" fill-opacity="0.8"/>
<path d="M468.568 50.85L466.368 58.7C466.352 58.75 466.36 58.8 466.393 58.85C466.427 58.9 466.468 58.925 466.518 58.925H470.668C470.718 58.925 470.76 58.9 470.793 58.85C470.827 58.8 470.835 58.75 470.818 58.7L468.618 50.85C468.618 50.8333 468.61 50.825 468.593 50.825C468.577 50.825 468.568 50.8333 468.568 50.85ZM462.093 66C461.743 66 461.468 65.8583 461.268 65.575C461.068 65.2917 461.027 64.9833 461.143 64.65L466.318 49.1C466.468 48.7 466.71 48.375 467.043 48.125C467.393 47.875 467.777 47.75 468.193 47.75H469.093C469.527 47.75 469.91 47.875 470.243 48.125C470.593 48.375 470.835 48.7 470.968 49.1L476.143 64.65C476.26 64.9833 476.218 65.2917 476.018 65.575C475.818 65.8583 475.543 66 475.193 66H474.293C473.893 66 473.518 65.875 473.168 65.625C472.835 65.3583 472.61 65.025 472.493 64.625L471.693 61.8C471.677 61.6667 471.585 61.6 471.418 61.6H465.768C465.618 61.6 465.527 61.6667 465.493 61.8L464.693 64.625C464.593 65.025 464.368 65.3583 464.018 65.625C463.685 65.875 463.31 66 462.893 66H462.093Z" fill="#1C0F13" fill-opacity="0.8"/>
<defs>
<linearGradient id="paint0_linear_213_195" x1="245.807" y1="-34.6067" x2="246.295" y2="164.527" gradientUnits="userSpaceOnUse">
<stop stop-color="#1C0F13"/>
<stop offset="1" stop-color="#6E7E85"/>
</linearGradient>
<linearGradient id="paint1_linear_213_195" x1="245.807" y1="-34.6067" x2="246.295" y2="164.527" gradientUnits="userSpaceOnUse">
<stop stop-color="#1C0F13"/>
<stop offset="1" stop-color="#6E7E85"/>
</linearGradient>
<linearGradient id="paint2_linear_213_195" x1="245.807" y1="-34.6067" x2="246.295" y2="164.527" gradientUnits="userSpaceOnUse">
<stop stop-color="#1C0F13"/>
<stop offset="1" stop-color="#6E7E85"/>
</linearGradient>
<linearGradient id="paint3_linear_213_195" x1="245.807" y1="-34.6067" x2="246.295" y2="164.527" gradientUnits="userSpaceOnUse">
<stop stop-color="#1C0F13"/>
<stop offset="1" stop-color="#6E7E85"/>
</linearGradient>
<linearGradient id="paint4_linear_213_195" x1="245.807" y1="-34.6067" x2="246.295" y2="164.527" gradientUnits="userSpaceOnUse">
<stop stop-color="#1C0F13"/>
<stop offset="1" stop-color="#6E7E85"/>
</linearGradient>
<linearGradient id="paint5_linear_213_195" x1="245.807" y1="-34.6067" x2="246.295" y2="164.527" gradientUnits="userSpaceOnUse">
<stop stop-color="#1C0F13"/>
<stop offset="1" stop-color="#6E7E85"/>
</linearGradient>
<linearGradient id="paint6_linear_213_195" x1="245.807" y1="-34.6067" x2="246.295" y2="164.527" gradientUnits="userSpaceOnUse">
<stop stop-color="#1C0F13"/>
<stop offset="1" stop-color="#6E7E85"/>
</linearGradient>
<linearGradient id="paint7_linear_213_195" x1="245.807" y1="-34.6067" x2="246.295" y2="164.527" gradientUnits="userSpaceOnUse">
<stop stop-color="#1C0F13"/>
<stop offset="1" stop-color="#6E7E85"/>
</linearGradient>
<linearGradient id="paint8_linear_213_195" x1="245.807" y1="-34.6067" x2="246.295" y2="164.527" gradientUnits="userSpaceOnUse">
<stop stop-color="#1C0F13"/>
<stop offset="1" stop-color="#6E7E85"/>
</linearGradient>
<linearGradient id="paint9_linear_213_195" x1="69.8454" y1="-1.46461e-06" x2="37.8707" y2="73.5283" gradientUnits="userSpaceOnUse">
<stop stop-color="#565373"/>
<stop offset="1" stop-color="#6E7E85"/>
</linearGradient>
<linearGradient id="paint10_linear_213_195" x1="69.8454" y1="-1.46461e-06" x2="37.8707" y2="73.5283" gradientUnits="userSpaceOnUse">
<stop stop-color="#565373"/>
<stop offset="1" stop-color="#6E7E85"/>
</linearGradient>
<linearGradient id="paint11_linear_213_195" x1="69.8454" y1="-1.46461e-06" x2="37.8707" y2="73.5283" gradientUnits="userSpaceOnUse">
<stop stop-color="#565373"/>
<stop offset="1" stop-color="#6E7E85"/>
</linearGradient>
<linearGradient id="paint12_linear_213_195" x1="69.8454" y1="-1.46461e-06" x2="37.8707" y2="73.5283" gradientUnits="userSpaceOnUse">
<stop stop-color="#565373"/>
<stop offset="1" stop-color="#6E7E85"/>
</linearGradient>
<linearGradient id="paint13_linear_213_195" x1="237.317" y1="1.19232e-05" x2="316.269" y2="145.106" gradientUnits="userSpaceOnUse">
<stop stop-color="#565373"/>
<stop offset="1" stop-color="#6E7E85"/>
</linearGradient>
</defs>
</svg>
