<svg width="288" height="54" viewBox="0 0 288 54" fill="none" xmlns="http://www.w3.org/2000/svg">
<path d="M9.8 53.4H0L15.9 0.6H27.9L43.8 53.4H33.8L30.5866 42.5988H13.0674L9.8 53.4ZM30.5866 42.5988L33.8 53.4L27.85 33.4L21.9 13.4L15.85 33.4L15.4719 34.65L15.4246 34.8H28.2665L30.5866 42.5988Z" fill="url(#paint0_linear_40_78)"/>
<path d="M67.3977 53.4H45.7977V45H51.1977V9H45.7977V0.599999H67.3977V9H61.9977V45H67.3977V53.4Z" fill="url(#paint1_linear_40_78)"/>
<path d="M94.693 42.6L94.093 39.6C92.213 40.84 90.273 41.76 88.273 42.36C86.313 42.92 84.653 43.2 83.293 43.2H80.593C77.873 43.2 75.693 42.38 74.053 40.74C72.413 39.1 71.593 36.92 71.593 34.2V20.4C71.593 17.4 72.433 15.06 74.113 13.38C75.833 11.66 78.193 10.8 81.193 10.8H93.493V0.599999H103.993V42.6H94.693ZM86.293 34.5C88.413 34.5 90.813 34.1 93.493 33.3V18.9H84.493C82.893 18.9 82.093 19.7 82.093 21.3V32.4C82.093 33 82.293 33.5 82.693 33.9C83.093 34.3 83.593 34.5 84.193 34.5H86.293Z" fill="url(#paint2_linear_40_78)"/>
<path d="M122.286 17.7C120.686 17.7 119.886 18.5 119.886 20.1V23.4H130.086V20.1C130.086 18.5 129.286 17.7 127.686 17.7H122.286ZM139.386 42C131.666 42.8 124.666 43.2 118.386 43.2C115.666 43.2 113.486 42.38 111.846 40.74C110.206 39.1 109.386 36.92 109.386 34.2V19.8C109.386 16.8 110.226 14.46 111.906 12.78C113.626 11.06 115.986 10.2 118.986 10.2H130.986C133.986 10.2 136.326 11.06 138.006 12.78C139.726 14.46 140.586 16.8 140.586 19.8V30.9H119.886V33.3C119.886 33.9 120.086 34.4 120.486 34.8C120.886 35.2 121.386 35.4 121.986 35.4C125.946 35.4 131.746 35.1 139.386 34.5V42Z" fill="url(#paint3_linear_40_78)"/>
<path d="M163.663 18.9C161.543 18.9 159.143 19.3 156.463 20.1V42.6H145.963V10.8H155.262L155.863 13.8C157.743 12.56 159.662 11.66 161.622 11.1C163.622 10.5 165.303 10.2 166.663 10.2H169.363C172.083 10.2 174.263 11.02 175.903 12.66C177.543 14.3 178.363 16.48 178.363 19.2V42.6H167.863V21C167.863 20.4 167.663 19.9 167.263 19.5C166.863 19.1 166.363 18.9 165.763 18.9H163.663Z" fill="url(#paint4_linear_40_78)"/>
<path d="M205.955 42.6C202.075 43 198.275 43.2 194.555 43.2C191.835 43.2 189.655 42.38 188.015 40.74C186.375 39.1 185.555 36.92 185.555 34.2V18.9H181.955V10.8H185.555L186.755 3.6H196.055V10.8H203.555V18.9H196.055V32.7C196.055 33.3 196.255 33.8 196.655 34.2C197.055 34.6 197.555 34.8 198.155 34.8H205.955V42.6Z" fill="url(#paint5_linear_40_78)"/>
<path d="M222.209 12V42.6H211.709V20.1H207.209V12H222.209ZM211.709 0H222.209V8.4H211.709V0Z" fill="url(#paint6_linear_40_78)"/>
<path d="M254.028 8.7C252.868 8.62 251.328 8.5 249.408 8.34C247.488 8.18 245.828 8.1 244.428 8.1C243.028 8.1 242.128 8.3 241.728 8.7C241.328 9.1 241.128 9.6 241.128 10.2V13.2H251.028V21.3H241.128V42.6H230.628V21.3H226.428V13.2H230.628V9C230.628 6.28 231.448 4.1 233.088 2.46C234.728 0.82 236.908 0 239.628 0C242.068 0 244.648 0.0800002 247.368 0.24C250.088 0.400001 252.308 0.52 254.028 0.599999V8.7Z" fill="url(#paint7_linear_40_78)"/>
<path d="M263.64 53.4C261.52 53.4 74.6502 53.4 71.59 53.4V45H258.54H261.24C262.76 45 263.74 44.58 264.18 43.74C264.66 42.9 264.58 41.72 263.94 40.2L251.64 10.8H262.74L270.24 31.2L276.54 10.8H287.64L275.64 43.8C274.48 46.96 272.98 49.34 271.14 50.94C269.3 52.58 266.8 53.4 263.64 53.4Z" fill="url(#paint8_linear_40_78)"/>
<defs>
<linearGradient id="paint0_linear_40_78" x1="144" y1="-24" x2="144.4" y2="114.1" gradientUnits="userSpaceOnUse">
<stop stop-color="#1C0F13"/>
<stop offset="1" stop-color="#6E7E85"/>
</linearGradient>
<linearGradient id="paint1_linear_40_78" x1="144" y1="-24" x2="144.4" y2="114.1" gradientUnits="userSpaceOnUse">
<stop stop-color="#1C0F13"/>
<stop offset="1" stop-color="#6E7E85"/>
</linearGradient>
<linearGradient id="paint2_linear_40_78" x1="144" y1="-24" x2="144.4" y2="114.1" gradientUnits="userSpaceOnUse">
<stop stop-color="#1C0F13"/>
<stop offset="1" stop-color="#6E7E85"/>
</linearGradient>
<linearGradient id="paint3_linear_40_78" x1="144" y1="-24" x2="144.4" y2="114.1" gradientUnits="userSpaceOnUse">
<stop stop-color="#1C0F13"/>
<stop offset="1" stop-color="#6E7E85"/>
</linearGradient>
<linearGradient id="paint4_linear_40_78" x1="144" y1="-24" x2="144.4" y2="114.1" gradientUnits="userSpaceOnUse">
<stop stop-color="#1C0F13"/>
<stop offset="1" stop-color="#6E7E85"/>
</linearGradient>
<linearGradient id="paint5_linear_40_78" x1="144" y1="-24" x2="144.4" y2="114.1" gradientUnits="userSpaceOnUse">
<stop stop-color="#1C0F13"/>
<stop offset="1" stop-color="#6E7E85"/>
</linearGradient>
<linearGradient id="paint6_linear_40_78" x1="144" y1="-24" x2="144.4" y2="114.1" gradientUnits="userSpaceOnUse">
<stop stop-color="#1C0F13"/>
<stop offset="1" stop-color="#6E7E85"/>
</linearGradient>
<linearGradient id="paint7_linear_40_78" x1="144" y1="-24" x2="144.4" y2="114.1" gradientUnits="userSpaceOnUse">
<stop stop-color="#1C0F13"/>
<stop offset="1" stop-color="#6E7E85"/>
</linearGradient>
<linearGradient id="paint8_linear_40_78" x1="144" y1="-24" x2="144.4" y2="114.1" gradientUnits="userSpaceOnUse">
<stop stop-color="#1C0F13"/>
<stop offset="1" stop-color="#6E7E85"/>
</linearGradient>
</defs>
</svg>
