<svg width="491" height="77" viewBox="0 0 491 77" fill="none" xmlns="http://www.w3.org/2000/svg">
<path d="M108.8 65.4H99L114.9 12.6H126.9L142.8 65.4H132.8L129.587 54.5988H112.067L108.8 65.4ZM129.587 54.5988L132.8 65.4L120.9 25.4L114.472 46.65L114.425 46.8H127.267L129.587 54.5988Z" fill="url(#paint0_linear_347_164)"/>
<path d="M166.398 65.4H144.798V57H150.198V21H144.798V12.6H166.398V21H160.998V57H166.398V65.4Z" fill="url(#paint1_linear_347_164)"/>
<path d="M193.693 54.6L193.093 51.6C191.213 52.84 189.273 53.76 187.273 54.36C185.313 54.92 183.653 55.2 182.293 55.2H179.593C176.873 55.2 174.693 54.38 173.053 52.74C171.413 51.1 170.593 48.92 170.593 46.2V32.4C170.593 29.4 171.433 27.06 173.113 25.38C174.833 23.66 177.193 22.8 180.193 22.8H192.493V12.6H202.993V54.6H193.693ZM185.293 46.5C187.413 46.5 189.813 46.1 192.493 45.3V30.9H183.493C181.893 30.9 181.093 31.7 181.093 33.3V44.4C181.093 45 181.293 45.5 181.693 45.9C182.093 46.3 182.593 46.5 183.193 46.5H185.293Z" fill="url(#paint2_linear_347_164)"/>
<path d="M221.286 29.7C219.686 29.7 218.886 30.5 218.886 32.1V35.4H229.086V32.1C229.086 30.5 228.286 29.7 226.686 29.7H221.286ZM238.386 54C230.666 54.8 223.666 55.2 217.386 55.2C214.666 55.2 212.486 54.38 210.846 52.74C209.206 51.1 208.386 48.92 208.386 46.2V31.8C208.386 28.8 209.226 26.46 210.906 24.78C212.626 23.06 214.986 22.2 217.986 22.2H229.986C232.986 22.2 235.326 23.06 237.006 24.78C238.726 26.46 239.586 28.8 239.586 31.8V42.9H218.886V45.3C218.886 45.9 219.086 46.4 219.486 46.8C219.886 47.2 220.386 47.4 220.986 47.4C224.946 47.4 230.746 47.1 238.386 46.5V54Z" fill="url(#paint3_linear_347_164)"/>
<path d="M262.663 30.9C260.543 30.9 258.143 31.3 255.463 32.1V54.6H244.963V22.8H254.262L254.863 25.8C256.742 24.56 258.663 23.66 260.622 23.1C262.622 22.5 264.303 22.2 265.663 22.2H268.362C271.082 22.2 273.263 23.02 274.903 24.66C276.543 26.3 277.362 28.48 277.362 31.2V54.6H266.862V33C266.862 32.4 266.663 31.9 266.263 31.5C265.863 31.1 265.363 30.9 264.763 30.9H262.663Z" fill="url(#paint4_linear_347_164)"/>
<path d="M304.955 54.6C301.075 55 297.275 55.2 293.555 55.2C290.835 55.2 288.655 54.38 287.015 52.74C285.375 51.1 284.555 48.92 284.555 46.2V30.9H280.955V22.8H284.555L285.755 15.6H295.055V22.8H302.555V30.9H295.055V44.7C295.055 45.3 295.255 45.8 295.655 46.2C296.055 46.6 296.555 46.8 297.155 46.8H304.955V54.6Z" fill="url(#paint5_linear_347_164)"/>
<path d="M321.209 24V54.6H310.709V32.1H306.209V24H321.209ZM310.709 12H321.209V20.4H310.709V12Z" fill="url(#paint6_linear_347_164)"/>
<path d="M353.028 20.7C351.868 20.62 350.328 20.5 348.408 20.34C346.488 20.18 344.828 20.1 343.428 20.1C342.028 20.1 341.128 20.3 340.728 20.7C340.328 21.1 340.128 21.6 340.128 22.2V25.2H350.028V33.3H340.128V54.6H329.628V33.3H325.428V25.2H329.628V21C329.628 18.28 330.448 16.1 332.088 14.46C333.728 12.82 335.908 12 338.628 12C341.068 12 343.648 12.08 346.368 12.24C349.088 12.4 351.308 12.52 353.028 12.6V20.7Z" fill="url(#paint7_linear_347_164)"/>
<path d="M362.64 65.4C360.52 65.4 173.65 65.4 170.59 65.4V57H360.24C361.76 57 362.74 56.58 363.18 55.74C363.66 54.9 363.58 53.72 362.94 52.2L350.64 22.8H361.74L369.24 43.2L375.54 22.8H386.64L374.64 55.8C373.48 58.96 371.98 61.34 370.14 62.94C368.3 64.58 365.8 65.4 362.64 65.4Z" fill="url(#paint8_linear_347_164)"/>
<path d="M0 12.8C0 8.31958 0 6.07937 0.871948 4.36808C1.63894 2.86278 2.86278 1.63894 4.36808 0.871948C6.07937 0 8.31958 0 12.8 0H27.2C31.6804 0 33.9206 0 35.6319 0.871948C37.1372 1.63894 38.3611 2.86278 39.1281 4.36808C40 6.07937 40 8.31958 40 12.8V27.2C40 31.6804 40 33.9206 39.1281 35.6319C38.3611 37.1372 37.1372 38.3611 35.6319 39.1281C33.9206 40 31.6804 40 27.2 40H12.8C8.31958 40 6.07937 40 4.36808 39.1281C2.86278 38.3611 1.63894 37.1372 0.871948 35.6319C0 33.9206 0 31.6804 0 27.2V12.8Z" fill="url(#paint9_linear_347_164)"/>
<path d="M20 47.6C20 45.6398 20 44.6597 20.3815 43.911C20.717 43.2525 21.2525 42.717 21.911 42.3815C22.6597 42 23.6398 42 25.6 42H34.4C36.3602 42 37.3403 42 38.089 42.3815C38.7475 42.717 39.283 43.2525 39.6185 43.911C40 44.6597 40 45.6398 40 47.6V56.4C40 58.3602 40 59.3403 39.6185 60.089C39.283 60.7475 38.7475 61.283 38.089 61.6185C37.3403 62 36.3602 62 34.4 62H25.6C23.6398 62 22.6597 62 21.911 61.6185C21.2525 61.283 20.717 60.7475 20.3815 60.089C20 59.3403 20 58.3602 20 56.4V47.6Z" fill="url(#paint10_linear_347_164)"/>
<path d="M42 23C42 20.1997 42 18.7996 42.545 17.73C43.0243 16.7892 43.7892 16.0243 44.7301 15.545C45.7996 15 47.1997 15 50 15H59C61.8003 15 63.2004 15 64.27 15.545C65.2108 16.0243 65.9757 16.7892 66.455 17.73C67 18.7996 67 20.1997 67 23V32C67 34.8003 67 36.2004 66.455 37.27C65.9757 38.2108 65.2108 38.9757 64.27 39.455C63.2004 40 61.8003 40 59 40H50C47.1997 40 45.7996 40 44.7301 39.455C43.7892 38.9757 43.0243 38.2108 42.545 37.27C42 36.2004 42 34.8003 42 32V23Z" fill="url(#paint11_linear_347_164)"/>
<path d="M42 53.2C42 49.2796 42 47.3195 42.763 45.8221C43.4341 44.5049 44.5049 43.4341 45.8221 42.763C47.3195 42 49.2796 42 53.2 42H65.8C69.7204 42 71.6806 42 73.1779 42.763C74.4951 43.4341 75.5659 44.5049 76.2371 45.8221C77 47.3195 77 49.2796 77 53.2V65.8C77 69.7204 77 71.6806 76.2371 73.1779C75.5659 74.4951 74.4951 75.5659 73.1779 76.2371C71.6806 77 69.7204 77 65.8 77H53.2C49.2796 77 47.3195 77 45.8221 76.2371C44.5049 75.5659 43.4341 74.4951 42.763 73.1779C42 71.6806 42 69.7204 42 65.8V53.2Z" fill="url(#paint12_linear_347_164)"/>
<path fill-rule="evenodd" clip-rule="evenodd" d="M471.5 41H420.5C411.387 41 404 48.3873 404 57.5C404 66.6127 411.387 74 420.5 74H471.5C480.613 74 488 66.6127 488 57.5C488 48.3873 480.613 41 471.5 41ZM420.5 38C409.73 38 401 46.7304 401 57.5C401 68.2696 409.73 77 420.5 77H471.5C482.27 77 491 68.2696 491 57.5C491 46.7304 482.27 38 471.5 38H420.5Z" fill="#1C0F13" fill-opacity="0.75"/>
<path d="M424.32 48.864C425.84 48.864 427.112 49.008 428.136 49.296C429.176 49.568 429.952 50.024 430.464 50.664C430.992 51.288 431.256 52.136 431.256 53.208C431.256 53.848 431.152 54.432 430.944 54.96C430.736 55.488 430.432 55.92 430.032 56.256C429.648 56.592 429.176 56.808 428.616 56.904V57.024C429.192 57.136 429.712 57.336 430.176 57.624C430.64 57.912 431.008 58.328 431.28 58.872C431.552 59.416 431.688 60.136 431.688 61.032C431.688 62.072 431.432 62.968 430.92 63.72C430.424 64.456 429.704 65.024 428.76 65.424C427.816 65.808 426.696 66 425.4 66H418.992V48.864H424.32ZM424.728 55.656C425.784 55.656 426.512 55.488 426.912 55.152C427.328 54.816 427.536 54.328 427.536 53.688C427.536 53.032 427.296 52.56 426.816 52.272C426.336 51.984 425.576 51.84 424.536 51.84H422.616V55.656H424.728ZM422.616 58.536V63H424.992C426.08 63 426.84 62.792 427.272 62.376C427.704 61.944 427.92 61.376 427.92 60.672C427.92 60.24 427.824 59.864 427.632 59.544C427.456 59.224 427.144 58.976 426.696 58.8C426.248 58.624 425.64 58.536 424.872 58.536H422.616Z" fill="#1C0F13" fill-opacity="0.75"/>
<path d="M444.981 66H435.117V48.864H444.981V51.84H438.741V55.608H444.549V58.584H438.741V63H444.981V66Z" fill="#1C0F13" fill-opacity="0.75"/>
<path d="M455.147 66H451.523V51.888H446.867V48.864H459.803V51.888H455.147V66Z" fill="#1C0F13" fill-opacity="0.75"/>
<path d="M471.246 66L469.998 61.92H463.758L462.51 66H458.598L464.646 48.792H469.086L475.158 66H471.246ZM467.886 54.888C467.806 54.616 467.702 54.272 467.574 53.856C467.446 53.44 467.318 53.016 467.19 52.584C467.062 52.152 466.958 51.776 466.878 51.456C466.798 51.776 466.686 52.176 466.542 52.656C466.414 53.12 466.286 53.568 466.158 54C466.046 54.416 465.958 54.712 465.894 54.888L464.67 58.872H469.134L467.886 54.888Z" fill="#1C0F13" fill-opacity="0.75"/>
<defs>
<linearGradient id="paint0_linear_347_164" x1="245.807" y1="-34.6067" x2="246.295" y2="164.527" gradientUnits="userSpaceOnUse">
<stop stop-color="#1C0F13"/>
<stop offset="1" stop-color="#6E7E85"/>
</linearGradient>
<linearGradient id="paint1_linear_347_164" x1="245.807" y1="-34.6067" x2="246.295" y2="164.527" gradientUnits="userSpaceOnUse">
<stop stop-color="#1C0F13"/>
<stop offset="1" stop-color="#6E7E85"/>
</linearGradient>
<linearGradient id="paint2_linear_347_164" x1="245.807" y1="-34.6067" x2="246.295" y2="164.527" gradientUnits="userSpaceOnUse">
<stop stop-color="#1C0F13"/>
<stop offset="1" stop-color="#6E7E85"/>
</linearGradient>
<linearGradient id="paint3_linear_347_164" x1="245.807" y1="-34.6067" x2="246.295" y2="164.527" gradientUnits="userSpaceOnUse">
<stop stop-color="#1C0F13"/>
<stop offset="1" stop-color="#6E7E85"/>
</linearGradient>
<linearGradient id="paint4_linear_347_164" x1="245.807" y1="-34.6067" x2="246.295" y2="164.527" gradientUnits="userSpaceOnUse">
<stop stop-color="#1C0F13"/>
<stop offset="1" stop-color="#6E7E85"/>
</linearGradient>
<linearGradient id="paint5_linear_347_164" x1="245.807" y1="-34.6067" x2="246.295" y2="164.527" gradientUnits="userSpaceOnUse">
<stop stop-color="#1C0F13"/>
<stop offset="1" stop-color="#6E7E85"/>
</linearGradient>
<linearGradient id="paint6_linear_347_164" x1="245.807" y1="-34.6067" x2="246.295" y2="164.527" gradientUnits="userSpaceOnUse">
<stop stop-color="#1C0F13"/>
<stop offset="1" stop-color="#6E7E85"/>
</linearGradient>
<linearGradient id="paint7_linear_347_164" x1="245.807" y1="-34.6067" x2="246.295" y2="164.527" gradientUnits="userSpaceOnUse">
<stop stop-color="#1C0F13"/>
<stop offset="1" stop-color="#6E7E85"/>
</linearGradient>
<linearGradient id="paint8_linear_347_164" x1="245.807" y1="-34.6067" x2="246.295" y2="164.527" gradientUnits="userSpaceOnUse">
<stop stop-color="#1C0F13"/>
<stop offset="1" stop-color="#6E7E85"/>
</linearGradient>
<linearGradient id="paint9_linear_347_164" x1="69.8454" y1="-1.46461e-06" x2="37.8707" y2="73.5283" gradientUnits="userSpaceOnUse">
<stop stop-color="#565373"/>
<stop offset="1" stop-color="#6E7E85"/>
</linearGradient>
<linearGradient id="paint10_linear_347_164" x1="69.8454" y1="-1.46461e-06" x2="37.8707" y2="73.5283" gradientUnits="userSpaceOnUse">
<stop stop-color="#565373"/>
<stop offset="1" stop-color="#6E7E85"/>
</linearGradient>
<linearGradient id="paint11_linear_347_164" x1="69.8454" y1="-1.46461e-06" x2="37.8707" y2="73.5283" gradientUnits="userSpaceOnUse">
<stop stop-color="#565373"/>
<stop offset="1" stop-color="#6E7E85"/>
</linearGradient>
<linearGradient id="paint12_linear_347_164" x1="69.8454" y1="-1.46461e-06" x2="37.8707" y2="73.5283" gradientUnits="userSpaceOnUse">
<stop stop-color="#565373"/>
<stop offset="1" stop-color="#6E7E85"/>
</linearGradient>
</defs>
</svg>
